<svg width="96" height="96" viewBox="0 0 96 96" fill="none" xmlns="http://www.w3.org/2000/svg">
<g opacity="0.96">
<path fill-rule="evenodd" clip-rule="evenodd" d="M23.9979 5.99958L41.1392 14.5704L27.4261 21.408L10.2848 12.8563L23.9979 5.99958ZM27.0662 0.725547L40.3335 7.35178L47.9957 11.1871L68.9253 0.725547C70.8537 -0.241849 73.1249 -0.241849 75.0619 0.725547L88.3293 7.35178L92.2032 9.28657C93.3345 9.8516 94.2602 10.6991 94.9115 11.7179C95.1686 12.1288 95.3915 12.5569 95.5629 13.0106C95.8457 13.764 96 14.5773 96 15.4077V18.8321V41.6253C96 44.2193 94.5344 46.5907 92.2118 47.755L78.8501 54.4326L71.9936 57.857V80.5987C71.9936 83.1927 70.528 85.5641 68.2053 86.7284L54.8522 93.3889L51.064 95.2809C50.0955 95.7603 49.0499 96 47.9957 96C46.9415 96 45.8959 95.7603 44.9274 95.2809L41.1392 93.3889L27.7861 86.7198C25.4634 85.5555 23.9979 83.1841 23.9979 80.5902V62.9393V57.857L3.78823 47.7635C1.46558 46.5992 0 44.2278 0 41.6339V18.8407V15.4163C0 14.5858 0.154272 13.7725 0.437104 13.0192C0.608517 12.5654 0.822784 12.1288 1.08847 11.7265C1.73984 10.7077 2.66548 9.86016 3.7968 9.29513L7.67074 7.36034L20.9381 0.734108C22.858 -0.233288 25.1378 -0.233288 27.0662 0.725547ZM89.1349 42.3958L71.9936 51.051V26.5397L89.1349 17.9797V42.3958ZM44.5675 68.1382L30.8544 61.2236V81.4472L44.5675 88.2798V68.1382ZM6.85653 42.4909V17.9988L20.5696 24.8554L44.5675 36.8546V61.2815L27.0662 52.5844L6.85653 42.4909ZM71.9936 5.99958L34.2827 24.8554L47.9957 31.7121L85.7066 12.8563L71.9936 5.99958ZM65.137 81.4472L51.424 88.2798V67.5538V36.8546L65.137 29.9651V55.2857V81.4472Z" fill="#0065FF"/>
</g>
</svg>
