<svg width="72" height="72" viewBox="0 0 72 72" fill="none" xmlns="http://www.w3.org/2000/svg">
<path opacity="0.96" fill-rule="evenodd" clip-rule="evenodd" d="M17.9984 4.49968L30.8544 10.9278L20.5696 16.056L7.7136 9.64223L17.9984 4.49968ZM20.2997 0.54416L30.2501 5.51383L35.9968 8.39033L51.694 0.54416C53.1403 -0.181387 54.8437 -0.181387 56.2964 0.54416L66.247 5.51383L69.1524 6.96493C70.0009 7.3887 70.6952 8.02433 71.1836 8.78843C71.3764 9.0966 71.5436 9.41768 71.6722 9.75795C71.8843 10.323 72 10.933 72 11.5558V14.1241V31.219C72 33.1645 70.9008 34.943 69.1589 35.8162L59.1376 40.8244L53.9952 43.3927V60.449C53.9952 62.3945 52.896 64.1731 51.154 65.0463L41.1391 70.0417L38.298 71.4607C37.5716 71.8202 36.7874 72 35.9968 72C35.2061 72 34.4219 71.8202 33.6955 71.4607L30.8544 70.0417L20.8396 65.0399C19.0975 64.1666 17.9984 62.3881 17.9984 60.4426V47.2045V43.3927L2.84117 35.8226C1.09918 34.9494 0 33.1708 0 31.2254V14.1305V11.5622C0 10.9394 0.115704 10.3294 0.327828 9.7644C0.456388 9.42405 0.617088 9.0966 0.816352 8.79487C1.30488 8.03078 1.99911 7.39512 2.8476 6.97135L5.75306 5.52026L15.7036 0.550581C17.1435 -0.174966 18.8533 -0.174966 20.2997 0.54416ZM66.8512 31.7969L53.9952 38.2882V19.9048L66.8512 13.4848V31.7969ZM33.4256 51.1036L23.1408 45.9177V61.0854L33.4256 66.2099V51.1036ZM5.1424 31.8682V13.4991L15.4272 18.6416L33.4256 27.6409V45.9611L20.2997 39.4383L5.1424 31.8682ZM53.9952 4.49968L25.712 18.6416L35.9968 23.7841L64.2799 9.64223L53.9952 4.49968ZM48.8528 61.0854L38.568 66.2099V50.6654V27.6409L48.8528 22.4738V41.4643V61.0854Z" fill="#0065FF"/>
</svg>
